<mxfile host="app.diagrams.net" modified="2024-03-31T02:04:43.476Z" agent="Mozilla/5.0 (Windows NT 10.0; Win64; x64) AppleWebKit/537.36 (KHTML, like Gecko) Chrome/123.0.0.0 Safari/537.36" etag="aIoevhTyU7qkIYFf3lGx" version="24.2.1" type="github">
  <diagram name="继承关系" id="Ao6GckLbddUeRnAB5THA">
    <mxGraphModel dx="1050" dy="557" grid="1" gridSize="10" guides="1" tooltips="1" connect="1" arrows="1" fold="1" page="1" pageScale="1" pageWidth="827" pageHeight="1169" math="0" shadow="0">
      <root>
        <mxCell id="0" />
        <mxCell id="1" parent="0" />
        <mxCell id="X7djAELoI4mjVvjGVqqI-1" value="«interface»&lt;br&gt;&lt;b&gt;IConcurrentBagEntry&lt;/b&gt;" style="html=1;whiteSpace=wrap;" vertex="1" parent="1">
          <mxGeometry x="310" width="150" height="50" as="geometry" />
        </mxCell>
        <mxCell id="X7djAELoI4mjVvjGVqqI-12" value="&lt;p style=&quot;margin:0px;margin-top:4px;text-align:center;&quot;&gt;&lt;br&gt;&lt;b&gt;PoolEntry&lt;/b&gt;&lt;/p&gt;" style="verticalAlign=top;align=left;overflow=fill;html=1;whiteSpace=wrap;" vertex="1" parent="1">
          <mxGeometry x="315" y="120" width="140" height="60" as="geometry" />
        </mxCell>
        <mxCell id="X7djAELoI4mjVvjGVqqI-13" value="&lt;p style=&quot;margin:0px;margin-top:4px;text-align:center;&quot;&gt;&lt;br&gt;&lt;b&gt;Connection&lt;/b&gt;&lt;/p&gt;" style="verticalAlign=top;align=left;overflow=fill;html=1;whiteSpace=wrap;" vertex="1" parent="1">
          <mxGeometry x="650" y="120" width="140" height="60" as="geometry" />
        </mxCell>
        <mxCell id="X7djAELoI4mjVvjGVqqI-16" value="&lt;p style=&quot;margin:0px;margin-top:4px;text-align:center;&quot;&gt;&lt;br&gt;&lt;b&gt;HikariConfig&lt;/b&gt;&lt;/p&gt;" style="verticalAlign=top;align=left;overflow=fill;html=1;whiteSpace=wrap;" vertex="1" parent="1">
          <mxGeometry x="10" y="230" width="140" height="60" as="geometry" />
        </mxCell>
        <mxCell id="X7djAELoI4mjVvjGVqqI-17" value="&lt;p style=&quot;margin:0px;margin-top:4px;text-align:center;&quot;&gt;&lt;br&gt;&lt;b&gt;HikariDataSource&lt;/b&gt;&lt;/p&gt;" style="verticalAlign=top;align=left;overflow=fill;html=1;whiteSpace=wrap;" vertex="1" parent="1">
          <mxGeometry x="10" y="380" width="140" height="60" as="geometry" />
        </mxCell>
        <mxCell id="X7djAELoI4mjVvjGVqqI-18" value="&lt;p style=&quot;margin:0px;margin-top:4px;text-align:center;&quot;&gt;&lt;br&gt;&lt;b&gt;ConcurrentBag&lt;/b&gt;&lt;/p&gt;" style="verticalAlign=top;align=left;overflow=fill;html=1;whiteSpace=wrap;" vertex="1" parent="1">
          <mxGeometry x="310" y="230" width="140" height="60" as="geometry" />
        </mxCell>
        <mxCell id="X7djAELoI4mjVvjGVqqI-20" value="Extends" style="endArrow=block;endSize=16;endFill=0;html=1;rounded=0;exitX=0.5;exitY=0;exitDx=0;exitDy=0;entryX=0.5;entryY=1;entryDx=0;entryDy=0;" edge="1" parent="1" source="X7djAELoI4mjVvjGVqqI-17" target="X7djAELoI4mjVvjGVqqI-16">
          <mxGeometry width="160" relative="1" as="geometry">
            <mxPoint x="5" y="320" as="sourcePoint" />
            <mxPoint x="185" y="320" as="targetPoint" />
          </mxGeometry>
        </mxCell>
        <mxCell id="X7djAELoI4mjVvjGVqqI-21" value="1" style="endArrow=open;html=1;endSize=12;startArrow=diamondThin;startSize=14;startFill=0;edgeStyle=orthogonalEdgeStyle;align=left;verticalAlign=bottom;rounded=0;exitX=1;exitY=0.5;exitDx=0;exitDy=0;entryX=0;entryY=0.5;entryDx=0;entryDy=0;" edge="1" parent="1" source="X7djAELoI4mjVvjGVqqI-12" target="X7djAELoI4mjVvjGVqqI-13">
          <mxGeometry x="-1" y="3" relative="1" as="geometry">
            <mxPoint x="490" y="180" as="sourcePoint" />
            <mxPoint x="650" y="180" as="targetPoint" />
          </mxGeometry>
        </mxCell>
        <mxCell id="X7djAELoI4mjVvjGVqqI-22" value="" style="endArrow=block;dashed=1;endFill=0;endSize=12;html=1;rounded=0;exitX=0.5;exitY=0;exitDx=0;exitDy=0;entryX=0.5;entryY=1;entryDx=0;entryDy=0;" edge="1" parent="1" source="X7djAELoI4mjVvjGVqqI-12" target="X7djAELoI4mjVvjGVqqI-1">
          <mxGeometry width="160" relative="1" as="geometry">
            <mxPoint x="470" y="90" as="sourcePoint" />
            <mxPoint x="630" y="90" as="targetPoint" />
          </mxGeometry>
        </mxCell>
        <mxCell id="X7djAELoI4mjVvjGVqqI-23" value="1" style="endArrow=open;html=1;endSize=12;startArrow=diamondThin;startSize=14;startFill=0;edgeStyle=orthogonalEdgeStyle;align=left;verticalAlign=bottom;rounded=0;exitX=1;exitY=0.5;exitDx=0;exitDy=0;entryX=0;entryY=0.5;entryDx=0;entryDy=0;" edge="1" parent="1" source="X7djAELoI4mjVvjGVqqI-17" target="X7djAELoI4mjVvjGVqqI-25">
          <mxGeometry x="-1" y="3" relative="1" as="geometry">
            <mxPoint x="165" y="409.5" as="sourcePoint" />
            <mxPoint x="330" y="410" as="targetPoint" />
          </mxGeometry>
        </mxCell>
        <mxCell id="X7djAELoI4mjVvjGVqqI-29" style="edgeStyle=orthogonalEdgeStyle;rounded=0;orthogonalLoop=1;jettySize=auto;html=1;exitX=0.5;exitY=0;exitDx=0;exitDy=0;entryX=0.5;entryY=1;entryDx=0;entryDy=0;startArrow=diamondThin;startFill=1;" edge="1" parent="1" source="X7djAELoI4mjVvjGVqqI-25" target="X7djAELoI4mjVvjGVqqI-18">
          <mxGeometry relative="1" as="geometry" />
        </mxCell>
        <mxCell id="X7djAELoI4mjVvjGVqqI-25" value="&lt;p style=&quot;margin:0px;margin-top:4px;text-align:center;&quot;&gt;&lt;br&gt;&lt;b&gt;HikariPool&lt;/b&gt;&lt;/p&gt;" style="verticalAlign=top;align=left;overflow=fill;html=1;whiteSpace=wrap;" vertex="1" parent="1">
          <mxGeometry x="310" y="380" width="140" height="60" as="geometry" />
        </mxCell>
        <mxCell id="X7djAELoI4mjVvjGVqqI-26" value="«abstract»&lt;br&gt;&lt;b&gt;PoolBase&lt;/b&gt;" style="html=1;whiteSpace=wrap;" vertex="1" parent="1">
          <mxGeometry x="570" y="385" width="150" height="50" as="geometry" />
        </mxCell>
        <mxCell id="X7djAELoI4mjVvjGVqqI-27" value="Extends" style="endArrow=block;endSize=16;endFill=0;html=1;rounded=0;exitX=1;exitY=0.5;exitDx=0;exitDy=0;entryX=0;entryY=0.5;entryDx=0;entryDy=0;" edge="1" parent="1" source="X7djAELoI4mjVvjGVqqI-25" target="X7djAELoI4mjVvjGVqqI-26">
          <mxGeometry width="160" relative="1" as="geometry">
            <mxPoint x="390" y="460" as="sourcePoint" />
            <mxPoint x="550" y="460" as="targetPoint" />
          </mxGeometry>
        </mxCell>
      </root>
    </mxGraphModel>
  </diagram>
</mxfile>
